<svg width="56" height="29" viewBox="0 0 56 29" fill="none" xmlns="http://www.w3.org/2000/svg">
<rect y="3.76691" width="54" height="25" rx="3" transform="rotate(-4 0 3.76691)" fill="#6E30BE"/>
<g filter="url(#filter0_d_419_146)">
<path d="M20.9274 8.68271L21.7391 20.2907L18.5877 20.5111L17.9789 11.8051L17.9109 11.8098L15.4779 13.5064L15.2908 10.8311L18.0254 8.88563L20.9274 8.68271ZM26.8776 20.1137C26.4393 20.1443 26.0526 20.0176 25.7176 19.7334C25.3861 19.4453 25.2068 19.08 25.1796 18.6376C25.1457 18.2071 25.273 17.828 25.5615 17.5003C25.8537 17.1722 26.219 16.9929 26.6573 16.9623C27.0729 16.9332 27.4502 17.0606 27.789 17.3445C28.1316 17.6281 28.3198 17.9852 28.3537 18.4157C28.3705 18.7107 28.3118 18.9844 28.1776 19.2368C28.0469 19.4851 27.8675 19.6894 27.6395 19.8497C27.4112 20.0061 27.1573 20.0941 26.8776 20.1137ZM36.2895 19.5922C35.235 19.6622 34.3073 19.4821 33.5064 19.0521C32.7055 18.6221 32.0654 17.9663 31.5861 17.0847C31.1067 16.2031 30.8244 15.1254 30.7392 13.8518C30.6536 12.5743 30.7856 11.4753 31.1351 10.5548C31.4884 9.63393 32.0305 8.91444 32.7613 8.39629C33.4958 7.87788 34.3902 7.58182 35.4445 7.5081C36.4987 7.43438 37.4258 7.60497 38.2256 8.01989C39.0252 8.43102 39.6639 9.06794 40.142 9.93064C40.62 10.7933 40.9016 11.8615 40.9869 13.1352C41.0764 14.4161 40.9452 15.5265 40.5933 16.4662C40.2413 17.4059 39.6987 18.1444 38.9654 18.6817C38.2357 19.215 37.3437 19.5185 36.2895 19.5922ZM36.1103 17.0303C36.6545 16.9922 37.0805 16.6777 37.3885 16.0866C37.7 15.4914 37.8112 14.5837 37.7221 13.3635C37.6664 12.5662 37.5414 11.9199 37.3473 11.4247C37.1532 10.9294 36.9079 10.5707 36.6114 10.3484C36.3146 10.1223 35.9848 10.022 35.622 10.0473C35.0779 10.0854 34.6532 10.3923 34.3479 10.968C34.0426 11.5437 33.928 12.4289 34.0039 13.6235C34.0569 14.4362 34.1812 15.0996 34.3766 15.6137C34.5718 16.1241 34.8179 16.4941 35.115 16.724C35.4158 16.9536 35.7476 17.0557 36.1103 17.0303Z" fill="white"/>
</g>
<defs>
<filter id="filter0_d_419_146" x="13.9577" y="5.94941" width="28.6614" height="16.2614" filterUnits="userSpaceOnUse" color-interpolation-filters="sRGB">
<feFlood flood-opacity="0" result="BackgroundImageFix"/>
<feColorMatrix in="SourceAlpha" type="matrix" values="0 0 0 0 0 0 0 0 0 0 0 0 0 0 0 0 0 0 127 0" result="hardAlpha"/>
<feOffset/>
<feGaussianBlur stdDeviation="0.6"/>
<feComposite in2="hardAlpha" operator="out"/>
<feColorMatrix type="matrix" values="0 0 0 0 1 0 0 0 0 1 0 0 0 0 1 0 0 0 1 0"/>
<feBlend mode="normal" in2="BackgroundImageFix" result="effect1_dropShadow_419_146"/>
<feBlend mode="normal" in="SourceGraphic" in2="effect1_dropShadow_419_146" result="shape"/>
</filter>
</defs>
</svg>
